<?xml version="1.0" standalone="no"?>
<!DOCTYPE svg PUBLIC "-//W3C//DTD SVG 20010904//EN"
 "http://www.w3.org/TR/2001/REC-SVG-20010904/DTD/svg10.dtd">
<svg version="1.0" xmlns="http://www.w3.org/2000/svg"
 width="762.000000pt" height="912.000000pt" viewBox="0 0 762.000000 912.000000"
 preserveAspectRatio="xMidYMid meet">
<metadata>
Created by potrace 1.16, written by Peter Selinger 2001-2019
</metadata>
<g transform="translate(0.000000,912.000000) scale(0.100000,-0.100000)"
fill="#000000" stroke="none">
<path d="M5240 9015 c-125 -26 -236 -78 -327 -152 -59 -48 -204 -191 -303
-299 -30 -33 -48 -51 -40 -39 57 74 50 69 -35 -25 -33 -36 -43 -49 -22 -31 49
46 48 26 -2 -23 -51 -50 -87 -132 -100 -229 -16 -114 -14 -156 15 -294 14 -68
23 -134 20 -146 -3 -12 -3 -16 0 -9 11 24 24 1 24 -43 0 -42 -2 -45 -44 -63
-51 -23 -60 -44 -75 -162 -19 -151 18 -291 102 -379 23 -25 33 -38 22 -30 -18
13 -19 13 -6 -3 7 -10 16 -16 20 -14 4 3 31 -4 61 -14 30 -11 47 -19 37 -20
-10 0 -33 7 -52 14 -19 8 -35 13 -35 10 0 -12 75 -35 97 -29 25 6 25 6 19 98
-4 51 -14 171 -23 267 -19 216 -14 420 11 468 l17 33 17 -21 17 -22 68 47 c60
41 71 45 104 39 21 -4 44 -13 52 -21 15 -16 72 -12 196 13 126 25 173 20 270
-30 47 -24 121 -56 165 -70 44 -14 112 -44 152 -67 65 -37 78 -40 121 -35 26
3 53 9 60 13 13 9 76 11 74 3 0 -3 2 -18 6 -35 3 -16 11 -63 17 -103 8 -50 19
-82 36 -101 24 -29 24 -30 9 -88 -9 -32 -23 -111 -30 -176 -8 -65 -23 -137
-33 -160 -10 -23 -51 -81 -91 -129 -40 -49 -69 -88 -65 -88 3 0 1 -7 -6 -15
-11 -13 -10 -14 3 -10 8 4 18 2 21 -4 7 -11 57 13 111 55 18 13 42 24 55 24
23 0 23 0 5 -22 -10 -13 17 13 61 57 43 44 89 92 101 108 26 31 36 33 57 11
20 -20 14 -31 -68 -133 -59 -72 -89 -115 -71 -99 4 4 13 4 19 -1 16 -13 49
-17 64 -8 45 29 -31 -96 -91 -148 -75 -65 -132 -122 -197 -200 -39 -46 2 -13
97 78 45 43 86 76 91 73 5 -3 20 7 33 22 13 14 16 20 7 13 -10 -7 -18 -9 -18
-4 0 12 31 42 43 41 5 0 12 4 15 8 4 4 1 4 -7 -1 -9 -5 -12 -3 -9 6 3 8 10 14
15 14 6 0 15 4 20 9 5 5 2 6 -6 1 -9 -5 -12 -3 -9 6 3 8 11 13 17 11 7 -1 10
1 7 6 -3 5 8 40 24 78 16 38 34 90 40 115 l11 45 52 -25 c42 -21 65 -26 127
-25 87 0 129 16 191 70 24 21 35 28 24 15 -11 -13 -38 -37 -59 -52 -21 -16
-34 -29 -28 -29 6 0 37 25 69 56 32 30 52 52 44 48 -7 -4 -12 -3 -9 2 2 5 16
34 31 66 63 130 74 351 22 474 l-14 34 -27 -25 c-15 -14 -38 -28 -50 -31 l-22
-6 26 -50 c23 -45 26 -63 26 -142 -1 -102 -20 -165 -61 -208 -56 -58 -97 -28
-113 81 -10 69 -5 139 16 263 6 37 6 38 -38 58 -24 11 -82 25 -127 32 l-83 13
53 78 c77 111 89 137 95 208 8 79 -10 245 -37 353 -26 103 -112 281 -180 371
-135 178 -286 291 -479 356 -83 28 -111 32 -220 35 -81 2 -148 -2 -190 -11z
m330 -19 c77 -16 227 -72 236 -88 5 -7 2 -9 -8 -6 -8 4 -21 2 -29 -4 -10 -7
-4 -8 22 -5 20 3 42 1 50 -4 9 -5 -17 -9 -71 -9 -67 0 -106 7 -185 31 -181 56
-346 50 -491 -17 -95 -44 -102 -46 -69 -19 41 35 179 102 245 119 71 19 217
20 300 2z"/>
<path d="M4633 7549 c-17 -17 -16 -54 1 -69 8 -6 44 -18 79 -25 36 -7 83 -23
106 -34 47 -24 99 -27 126 -7 34 25 6 60 -81 102 -61 29 -93 38 -148 42 -50 3
-75 0 -83 -9z"/>
<path d="M5369 7516 c-69 -15 -102 -35 -119 -76 -12 -28 -11 -33 11 -57 13
-14 43 -34 66 -44 l43 -18 -25 -37 c-29 -43 -31 -81 -8 -147 21 -57 49 -76
121 -79 62 -3 97 19 123 75 21 47 24 83 9 122 -5 14 -6 24 -2 21 4 -2 6 10 4
28 -3 29 1 36 31 55 46 28 63 68 47 115 -6 19 -19 38 -28 42 -28 12 -213 12
-273 0z"/>
<path d="M4744 7348 c-32 -35 -44 -63 -44 -105 0 -56 30 -97 85 -118 43 -17
49 -17 79 -2 73 34 82 149 17 211 -42 40 -108 47 -137 14z"/>
<path d="M5436 6623 c-3 -3 -49 -7 -103 -8 -103 -2 -168 -21 -180 -51 -3 -9 0
-20 8 -25 12 -7 11 -9 -2 -9 -23 0 -58 -41 -65 -78 -9 -44 38 -92 91 -92 58 0
121 20 146 46 19 21 20 26 9 53 -18 43 -9 57 52 76 67 22 210 87 204 92 -2 3
-14 -1 -26 -7 -32 -17 -60 -20 -57 -7 2 12 -66 20 -77 10z"/>
<path d="M5419 6459 c-36 -13 -61 -28 -69 -43 -7 -13 -23 -29 -36 -36 -13 -7
-21 -17 -18 -21 2 -4 -2 -11 -9 -16 -40 -24 -61 -164 -26 -171 19 -4 165 137
205 198 24 36 26 46 17 70 -8 21 -8 30 1 34 32 13 -16 2 -65 -15z"/>
<path d="M5531 6257 c-110 -76 -130 -93 -117 -103 9 -6 16 -19 16 -28 0 -10 5
-14 10 -11 6 3 10 2 10 -3 0 -33 88 -8 117 33 10 15 37 50 61 80 42 54 62 107
45 118 -5 3 -69 -35 -142 -86z"/>
<path d="M6417 4333 c-22 -141 -37 -648 -26 -853 8 -157 37 -346 55 -361 16
-13 54 -3 54 16 0 7 5 15 11 17 8 3 -2 79 -30 243 -73 429 -87 650 -56 859 18
116 18 116 6 116 -5 0 -11 -17 -14 -37z"/>
<path d="M2748 4043 l-3 -58 -87 -14 -88 -15 0 -220 c0 -147 4 -216 10 -206 6
10 10 11 10 3 0 -7 6 -13 13 -13 24 1 56 48 77 116 11 38 30 92 40 119 32 82
50 175 50 257 0 91 -18 116 -22 31z"/>
<path d="M7005 3014 c-109 -20 -237 -66 -296 -106 -31 -21 -57 -50 -72 -79
-23 -43 -23 -47 -8 -79 16 -35 89 -79 154 -94 l27 -6 0 89 c0 81 2 92 25 119
34 41 78 59 203 87 198 44 289 42 390 -6 51 -25 67 -54 77 -136 5 -44 11 -63
21 -63 8 0 16 0 19 0 3 0 4 2 3 4 -5 8 45 55 53 51 4 -3 10 -1 13 4 4 5 3 12
-2 15 -4 2 -9 19 -10 38 -3 41 -42 77 -128 119 -119 58 -297 74 -469 43z"/>
<path d="M2827 2292 c-22 -25 -106 -65 -193 -94 l-64 -21 0 -50 c0 -42 3 -49
18 -44 9 2 103 28 207 55 206 55 283 80 336 108 19 10 52 20 74 24 32 5 17 8
-75 18 -254 26 -283 27 -303 4z"/>
<path d="M5428 1972 c-48 -20 -84 -40 -80 -43 4 -4 84 -12 179 -19 l171 -11
74 31 c40 18 77 36 81 40 12 10 -38 18 -168 25 -60 3 -123 8 -140 10 -20 3
-59 -8 -117 -33z"/>
<path d="M1235 1968 c-35 -20 -168 -138 -237 -211 -63 -68 -67 -71 -92 -59
-36 16 -61 15 -76 -3 -10 -12 -10 -18 1 -31 10 -12 24 -15 59 -11 32 4 50 1
62 -10 15 -13 26 -14 74 -5 37 8 62 8 74 2 37 -20 128 6 161 46 13 16 12 16
-13 0 -28 -18 -28 -18 -56 12 -30 32 -71 48 -97 38 -10 -4 -15 1 -15 15 0 12
40 62 102 125 92 94 108 123 53 92z"/>
<path d="M7449 1897 c-27 -31 -54 -49 -105 -68 -97 -38 -221 -77 -274 -88 -74
-15 -273 -72 -496 -142 -33 -11 -69 -21 -80 -24 -10 -2 -64 -18 -119 -35 -218
-67 -261 -80 -277 -80 -9 0 -23 -8 -30 -19 -7 -10 -30 -24 -51 -32 -46 -16
-57 -6 -57 53 0 87 -91 307 -151 367 -30 30 -32 31 -50 15 -18 -16 -20 -16
-39 1 -14 13 -26 15 -47 10 -15 -5 -91 -7 -168 -6 -77 2 -138 1 -135 -2 3 -3
32 -10 65 -16 144 -25 353 -168 391 -266 20 -53 15 -127 -11 -155 -29 -32 -63
-26 -135 22 -14 9 -61 26 -104 37 -65 17 -87 19 -120 10 -63 -16 -117 -52
-164 -108 -45 -53 -99 -157 -87 -169 3 -4 60 -6 126 -5 95 1 123 -2 135 -14
10 -11 25 -13 49 -9 21 4 36 2 40 -5 4 -6 19 -9 36 -5 15 3 31 1 34 -4 3 -5
23 -10 43 -10 40 0 101 -5 117 -10 6 -2 24 -4 40 -6 17 -2 38 -4 47 -5 10 -1
20 -11 24 -21 3 -11 10 -15 17 -11 7 4 14 8 17 9 3 0 13 4 23 8 9 5 30 5 45 1
15 -4 41 -6 59 -6 18 1 35 -3 38 -9 3 -5 19 -7 35 -3 20 3 30 1 30 -6 0 -7 4
-10 9 -7 5 3 11 -3 14 -14 3 -13 10 -18 21 -14 9 3 16 1 16 -6 0 -6 4 -9 9 -5
17 10 37 -33 33 -70 -5 -43 11 -35 -302 -166 l-245 -102 -93 1 c-89 2 -461 52
-1992 269 -636 90 -686 98 -708 120 -17 18 -22 31 -18 54 4 30 26 65 26 43 0
-5 4 -4 8 1 7 11 73 59 82 61 3 0 16 6 30 11 22 10 23 12 8 18 -13 5 -15 11
-8 25 12 23 2 32 -22 19 -10 -5 -23 -7 -30 -3 -15 9 -118 11 -124 2 -2 -4 -14
-5 -27 -2 -44 9 -75 6 -165 -16 l-92 -23 -1 -36 -2 -36 -7 40 c-4 24 -8 -25
-9 -127 -1 -166 -1 -168 22 -172 12 -3 116 -19 231 -35 126 -18 218 -37 232
-46 18 -11 24 -25 24 -50 0 -19 -1 -35 -3 -35 -2 0 -145 -50 -318 -110 -173
-61 -341 -115 -374 -120 -38 -6 -90 -6 -140 0 -162 18 -789 120 -800 130 -13
11 -8 57 8 78 6 7 25 19 43 27 22 9 35 23 43 47 15 48 11 729 -5 735 -16 6
-149 -40 -242 -82 -90 -42 -178 -60 -218 -45 -15 6 -80 13 -143 16 -64 3 -149
12 -190 20 -57 11 -77 12 -85 3 -7 -8 -7 -10 -1 -6 6 3 17 2 25 -4 12 -7 11
-9 -6 -9 -24 0 -48 23 -36 35 4 5 1 5 -6 0 -11 -6 -13 2 -11 33 2 23 0 44 -4
48 -4 4 -7 3 -7 -2 -6 -102 -5 -121 7 -139 7 -11 13 -27 13 -37 0 -9 5 -20 12
-24 7 -4 8 -3 4 4 -4 7 -5 12 -2 12 6 0 36 -55 36 -65 0 -3 -4 -3 -10 0 -6 3
-7 -1 -3 -10 4 -12 8 -13 13 -4 10 15 34 -26 26 -44 -2 -7 -5 -4 -5 6 -1 9 -5
17 -11 17 -6 0 -5 -10 2 -25 8 -18 15 -22 23 -15 9 8 14 5 18 -10 3 -11 1 -18
-4 -14 -5 3 -9 0 -9 -5 0 -6 7 -11 15 -11 8 0 15 -5 15 -11 0 -5 5 -7 12 -3 7
5 8 3 2 -7 -4 -8 -9 -20 -10 -27 -2 -11 0 -11 13 0 14 11 15 11 5 -8 -9 -18
-7 -25 11 -43 19 -17 26 -18 36 -8 11 10 11 8 0 -10 -7 -12 -17 -19 -23 -16
-5 4 -6 1 -2 -6 6 -9 12 -9 25 3 15 14 16 11 14 -37 -1 -29 -3 -56 -3 -62 -2
-18 6 -44 15 -52 4 -4 5 -2 1 5 -4 6 -2 12 3 12 6 0 11 8 11 18 0 15 -2 15
-10 2 -8 -11 -9 -8 -6 14 5 28 15 47 17 30 0 -5 2 -16 4 -24 16 -69 16 -77 1
-89 -23 -19 -10 -89 30 -168 19 -36 34 -70 34 -76 0 -5 12 -34 26 -64 21 -41
31 -53 49 -53 13 0 26 -6 29 -12 3 -7 4 -2 1 12 -3 14 -2 19 1 13 3 -7 12 -13
20 -13 8 0 14 -6 14 -13 0 -17 39 -63 51 -60 4 2 17 -8 27 -22 11 -13 22 -22
24 -19 3 2 11 -3 19 -13 9 -11 10 -14 2 -9 -8 4 -13 2 -13 -4 0 -18 -23 -6
-26 14 -3 21 -14 35 -14 18 0 -7 -5 -12 -11 -12 -8 0 -7 6 2 17 12 16 12 17
-2 6 -13 -11 -19 -7 -40 20 -13 17 -23 35 -22 38 1 3 -4 6 -12 6 -17 0 55 -86
95 -112 16 -11 30 -23 30 -27 0 -5 6 -8 14 -8 8 0 16 -6 19 -14 3 -8 20 -17
38 -21 18 -4 46 -22 63 -40 33 -34 90 -63 169 -85 26 -7 50 -17 53 -21 3 -5
16 -9 30 -9 13 0 24 -4 24 -9 0 -5 15 -12 33 -16 17 -4 37 -9 42 -11 18 -5 70
-12 55 -7 -8 3 -26 10 -40 16 -14 6 -28 10 -32 9 -17 -4 -58 18 -57 30 0 10 2
10 5 1 4 -9 11 -9 29 -1 16 7 28 7 41 -1 14 -8 15 -11 4 -11 -13 0 -13 -1 0
-10 18 -12 33 -13 26 -2 -3 5 8 8 25 8 16 0 29 -4 29 -8 0 -5 -9 -6 -20 -3
-26 8 -26 -1 1 -15 13 -7 25 -8 32 -2 7 6 35 6 71 1 33 -4 63 -6 67 -3 4 2 11
-1 14 -7 4 -6 21 -19 39 -30 17 -10 26 -19 21 -19 -6 0 -22 8 -35 17 -14 10
-32 19 -40 21 -29 8 -140 9 -145 3 -2 -4 27 -8 65 -9 39 0 78 -6 87 -12 16
-10 15 -11 -4 -7 -13 3 -23 2 -23 -3 0 -4 11 -10 25 -12 13 -3 22 -1 19 3 -7
12 0 11 31 -3 20 -9 28 -9 33 -1 4 7 20 18 36 26 25 14 30 13 46 -1 20 -16 18
-32 -3 -32 -7 0 -6 4 3 11 13 9 12 10 -3 5 -11 -3 -16 -2 -12 4 3 6 -4 10 -17
10 l-23 0 25 -20 c15 -11 33 -17 44 -14 11 4 16 2 12 -4 -4 -6 2 -8 16 -4 21
5 21 6 2 13 -17 7 -17 8 -1 8 10 1 28 -6 41 -14 21 -14 24 -14 36 0 7 9 8 15
2 15 -6 0 -12 -4 -14 -10 -2 -6 -8 -6 -18 0 -12 8 -12 10 5 10 14 0 16 3 7 8
-8 6 -2 9 18 9 17 0 26 -4 19 -7 -7 -5 -8 -10 -1 -14 6 -3 13 -2 17 4 7 11
121 14 128 2 3 -4 -25 -6 -61 -6 -38 1 -49 0 -24 -3 23 -2 40 -8 37 -13 -3 -5
0 -12 6 -16 8 -4 9 -3 5 4 -5 8 3 12 26 12 31 -1 32 -1 14 -15 -11 -8 -15 -15
-9 -15 7 0 15 5 18 10 4 6 12 9 19 8 6 -2 12 2 12 7 0 6 -7 9 -14 7 -8 -2 -11
1 -8 7 3 5 26 8 51 6 25 -1 43 1 40 4 -5 9 26 8 42 -2 6 -4 18 -4 26 -1 8 3
18 1 22 -5 4 -7 -1 -9 -12 -5 -14 5 -15 4 -4 -4 11 -8 10 -11 -5 -15 -16 -4
-16 -5 -2 -6 10 0 25 10 34 24 17 26 34 33 34 14 0 -5 -5 -7 -11 -3 -8 5 -9 2
-1 -12 8 -14 22 -19 50 -19 43 0 47 10 7 17 -13 3 -22 1 -19 -3 3 -5 -2 -9
-10 -9 -9 0 -16 4 -16 8 0 13 42 29 70 27 14 -1 35 2 48 6 15 6 21 5 17 -1 -3
-6 4 -10 17 -10 13 0 30 -6 37 -13 9 -8 12 -8 7 0 -3 6 -3 13 1 16 5 2 1 2 -7
0 -12 -3 -12 -2 -3 8 9 9 16 9 26 1 7 -6 23 -9 35 -5 13 3 22 2 20 -3 -2 -5 0
-10 5 -11 4 -2 6 0 5 5 -2 7 41 19 79 21 17 1 21 -3 17 -17 -5 -13 -4 -14 4
-3 5 7 16 10 23 6 8 -4 3 2 -10 13 -23 19 -23 20 -5 30 14 8 23 7 34 -2 12
-11 28 -10 85 5 105 27 123 30 130 19 4 -6 -6 -10 -22 -11 -15 0 -22 -3 -15
-6 7 -3 24 -2 39 2 24 6 25 7 7 20 -18 13 -18 14 1 13 25 -1 64 7 130 27 l50
15 -45 -6 c-61 -8 -71 -11 -102 -23 -16 -6 -28 -7 -28 -2 0 5 14 11 30 15 17
3 33 6 38 7 73 19 168 17 157 -2 -6 -9 35 -3 44 7 3 4 -2 4 -11 1 -10 -3 -20
-2 -23 3 -4 6 1 10 10 10 9 0 14 3 12 8 -3 4 29 8 72 9 54 2 70 0 56 -7 -14
-7 -8 -8 20 -3 22 4 51 7 65 6 l25 -1 -25 14 c-14 7 -34 13 -45 13 -17 -1 -16
-2 4 -8 13 -3 -15 -6 -62 -6 -47 0 -84 2 -82 4 2 1 38 7 80 12 42 4 87 11 98
14 18 5 19 4 7 -4 -13 -10 -13 -11 0 -12 21 -2 18 -2 85 4 l60 6 -50 -14 -50
-14 45 6 c25 3 50 9 56 14 5 4 21 5 34 2 16 -4 21 -3 16 6 -4 6 -11 9 -15 7
-4 -3 -8 1 -8 7 0 7 10 14 21 15 17 1 18 -1 6 -8 -12 -8 -10 -10 8 -10 13 0
21 4 18 8 -3 5 25 9 62 9 37 1 76 3 87 6 11 2 32 1 47 -4 15 -4 30 -4 32 0 5
8 116 4 124 -4 3 -3 -6 -5 -20 -5 -15 0 -29 -6 -31 -12 -4 -10 -6 -10 -6 0 -1
16 -17 16 -24 -1 -3 -8 7 -12 30 -13 23 -1 30 1 22 7 -9 6 3 9 34 9 28 0 46 4
42 10 -3 5 -13 7 -23 4 -14 -5 -14 -4 -2 4 9 7 19 7 26 2 6 -6 13 -9 15 -7 3
1 -4 -7 -16 -17 -20 -19 -20 -19 0 -12 46 18 58 20 50 5 -7 -11 -5 -11 9 1 18
14 18 15 -5 22 -25 7 61 2 121 -8 28 -4 32 -3 20 6 -12 10 -12 11 5 5 20 -7
55 -12 148 -19 26 -2 51 -7 55 -11 4 -4 -4 -5 -18 -1 -14 3 -19 3 -12 0 6 -3
10 -10 7 -15 -4 -5 1 -6 10 -3 10 4 15 2 13 -6 -2 -7 5 -14 15 -15 9 -2 17 1
17 6 0 5 7 9 16 9 8 0 12 -4 9 -10 -3 -5 -1 -10 4 -10 18 0 12 19 -8 30 -24
12 -34 13 -27 1 3 -5 -1 -12 -9 -15 -12 -4 -13 -2 -6 12 14 27 84 27 107 0 11
-12 13 -18 7 -14 -7 4 -13 2 -13 -3 0 -15 13 -14 29 2 10 10 15 8 27 -7 8 -11
14 -14 14 -8 0 7 9 12 20 12 11 0 20 -5 20 -12 0 -6 7 -3 16 8 8 10 13 14 10
9 -4 -10 37 -19 72 -16 27 2 39 2 92 -4 92 -9 404 -16 397 -8 -4 3 -31 6 -60
6 l-52 -1 42 7 c49 8 121 2 103 -9 -7 -4 -1 -8 16 -8 16 0 34 5 41 10 19 15
95 19 86 5 -4 -7 1 -6 10 2 18 15 23 26 7 16 -6 -4 -7 1 -3 11 4 11 8 13 11 6
2 -7 13 -10 27 -6 13 3 26 0 30 -6 5 -9 1 -10 -16 -5 -17 4 -20 3 -10 -3 11
-8 11 -10 0 -15 -8 -2 -2 -4 13 -3 14 0 24 4 21 8 -4 8 15 11 77 12 22 1 34 5
32 14 -1 7 8 12 20 12 19 0 20 -2 8 -10 -8 -5 -11 -10 -7 -10 5 0 21 10 35 22
15 12 19 18 10 15 -10 -4 -18 -2 -18 3 0 6 9 10 21 10 11 0 18 4 15 8 -7 11
31 8 41 -3 5 -4 2 -5 -4 -1 -7 4 -13 2 -13 -4 0 -6 -5 -8 -12 -4 -6 4 -8 3 -4
-4 3 -6 -2 -15 -11 -21 -10 -6 -13 -11 -7 -11 6 0 17 7 24 15 7 8 27 17 46 21
33 6 51 20 41 30 -3 3 -16 1 -29 -6 -22 -11 -22 -10 -3 5 11 8 26 13 35 9 17
-7 20 -7 70 2 19 4 42 13 51 20 9 8 19 11 22 7 4 -3 7 -1 7 6 0 7 5 9 10 6 6
-3 10 -2 10 4 0 6 7 8 15 5 8 -4 15 -1 15 4 0 14 -36 7 -66 -13 -13 -8 -26
-16 -29 -16 -2 0 -18 -4 -35 -9 -19 -5 -28 -5 -25 1 4 5 13 9 22 9 20 0 160
69 174 87 6 7 25 13 41 13 25 0 29 3 25 20 -6 22 8 37 18 20 11 -18 25 -11 22
12 -1 18 3 23 20 22 19 0 21 2 10 14 -10 13 -9 14 9 4 19 -10 21 -9 19 11 -2
16 3 23 16 24 12 1 17 -3 13 -10 -4 -7 -3 -8 2 -4 5 5 9 12 10 15 0 4 4 15 8
24 4 9 5 21 2 27 -4 5 -1 13 5 17 8 4 9 3 5 -4 -4 -7 -3 -12 3 -12 6 0 8 -8 5
-18 -5 -13 -4 -14 4 -3 6 8 8 26 6 40 l-4 26 14 -24 c16 -29 29 -7 13 23 -7
14 -6 22 5 30 8 6 22 22 32 36 10 14 16 18 13 10 -3 -11 2 -16 14 -16 12 0 15
4 9 10 -24 24 -3 80 26 69 14 -5 8 -33 -8 -33 -6 0 -7 8 -3 18 5 13 3 14 -5 6
-14 -13 -10 -45 5 -46 17 -1 43 55 34 74 -6 10 -5 19 1 23 6 4 10 12 9 18 -3
24 1 37 12 37 7 0 9 -10 7 -25 -3 -13 -1 -22 3 -19 18 11 8 36 -26 71 -37 38
-43 60 -22 82 10 11 9 13 -5 8 -10 -3 -24 1 -33 10 -14 14 -14 17 2 30 17 13
16 13 -4 4 -33 -16 -52 -13 -29 4 20 15 20 15 0 16 -10 1 -23 0 -29 -1 -5 -1
-7 1 -3 5 11 11 -18 35 -42 35 -12 0 -18 5 -15 10 3 5 -3 10 -14 10 -12 0 -21
4 -21 10 0 5 -7 7 -15 4 -8 -4 -15 -1 -15 5 0 6 -11 11 -25 11 -19 0 -25 5
-23 18 2 13 -4 17 -24 17 -14 -1 -24 3 -22 7 2 4 -4 7 -13 7 -44 1 -93 18
-105 35 -5 7 -8 7 -8 -1 0 -7 -7 -13 -15 -13 -8 0 -15 6 -15 14 0 8 -5 18 -12
22 -7 5 -9 2 -5 -9 4 -11 2 -14 -9 -10 -7 3 -14 11 -14 17 0 8 -14 11 -40 10
-22 -1 -40 3 -40 8 0 6 -7 8 -15 4 -8 -3 -15 -2 -15 2 0 4 61 28 135 52 74 24
133 46 131 48 -6 5 -388 -119 -416 -136 l-25 -14 23 19 c27 22 466 164 767
249 307 86 454 133 520 167 79 42 79 42 69 26 -7 -12 -5 -12 9 0 20 16 23 26
5 15 -9 -5 -9 -2 1 9 16 20 36 23 25 5 -4 -7 16 9 45 37 50 49 62 63 40 49 -7
-4 -10 -1 -7 7 3 8 10 14 16 14 5 0 14 4 19 9 5 5 3 6 -4 2 -18 -10 -16 -3 8
38 27 47 22 45 -22 -7z"/>
<path d="M1430 1843 c-41 -43 -60 -64 -41 -48 25 22 32 25 28 12 -17 -47 -18
-67 -3 -96 17 -32 36 -37 83 -25 21 6 22 11 22 106 -1 87 -3 99 -17 93 -13 -5
-12 -2 3 15 10 11 14 20 9 20 -5 0 -43 -35 -84 -77z"/>
<path d="M801 1825 c-39 -41 -76 -75 -82 -75 -7 0 -27 -10 -47 -22 -28 -17
-38 -19 -53 -10 -15 10 -22 6 -45 -23 -14 -19 -32 -35 -39 -35 -14 0 -14 -25
0 -37 4 -4 5 -3 2 4 -5 8 4 10 30 6 32 -4 42 0 62 21 17 18 35 26 59 26 45 0
102 42 102 74 0 13 20 51 45 85 25 34 43 61 41 61 -2 0 -36 -34 -75 -75z"/>
<path d="M4573 1632 c-44 -38 -99 -129 -144 -240 -26 -63 -50 -105 -69 -121
-38 -33 -33 -71 9 -71 44 0 60 20 81 104 23 91 96 250 140 306 46 58 38 69
-17 22z"/>
<path d="M4781 1524 c-64 -70 -129 -204 -174 -356 -35 -121 -33 -118 -97 -103
-14 3 -32 1 -40 -4 -12 -8 -11 -14 10 -35 13 -15 29 -26 37 -26 7 0 13 -7 13
-15 0 -22 47 -19 52 3 7 26 99 37 138 17 15 -8 50 -17 79 -21 37 -5 49 -10 42
-17 -13 -13 -14 -27 -2 -27 5 0 11 8 13 18 7 26 81 43 148 35 39 -4 51 -3 46
5 -4 7 -13 12 -21 12 -22 0 -45 41 -45 80 1 110 50 270 103 340 64 85 61 79
43 86 -31 12 -100 -89 -147 -214 -32 -85 -34 -96 -18 -86 8 5 10 0 6 -17 -3
-13 -11 -54 -18 -91 -8 -46 -16 -65 -25 -61 -7 2 -20 -7 -29 -21 -14 -21 -25
-26 -56 -26 -48 0 -103 22 -117 45 -8 15 -19 17 -64 13 l-56 -4 15 45 c42 128
43 131 79 131 30 0 34 3 34 26 0 23 -3 26 -25 22 -30 -6 -29 -8 -9 35 13 26
21 33 38 30 20 -4 26 3 45 55 12 33 37 83 56 111 19 28 35 55 35 61 0 27 -43
5 -89 -46z"/>
</g>
</svg>
